<svg width="100" height="100" viewBox="0 0 100 100" fill="none" xmlns="http://www.w3.org/2000/svg">
  <!-- Bottom layer - darkest purple (replaces red) -->
  <path d="M15 65 C15 65 15 75 25 75 L35 75 C42 75 50 67 55 60 C60 53 65 45 70 35 L85 15 L75 15 C75 15 65 25 60 32 C55 39 50 45 45 50 L35 50 C25 50 15 55 15 65 Z" fill="url(#gradient3)"/>
  
  <!-- Bottom R vertical part -->
  <path d="M15 25 L15 75 L25 75 L25 50 L40 50 C48 50 55 43 55 35 C55 27 48 20 40 20 L15 25 Z M25 30 L40 30 C42 30 45 32 45 35 C45 38 42 40 40 40 L25 40 L25 30 Z" fill="url(#gradient3)"/>
  
  <!-- Middle layer - medium purple (replaces orange) -->
  <path d="M13 63 C13 63 13 73 23 73 L33 73 C40 73 48 65 53 58 C58 51 63 43 68 33 L83 13 L73 13 C73 13 63 23 58 30 C53 37 48 43 43 48 L33 48 C23 48 13 53 13 63 Z" fill="url(#gradient2)"/>
  
  <!-- Middle R vertical part -->
  <path d="M13 23 L13 73 L23 73 L23 48 L38 48 C46 48 53 41 53 33 C53 25 46 18 38 18 L13 23 Z M23 28 L38 28 C40 28 43 30 43 33 C43 36 40 38 38 38 L23 38 L23 28 Z" fill="url(#gradient2)"/>
  
  <!-- Top layer - lightest purple (replaces cream/white) -->
  <path d="M11 61 C11 61 11 71 21 71 L31 71 C38 71 46 63 51 56 C56 49 61 41 66 31 L81 11 L71 11 C71 11 61 21 56 28 C51 35 46 41 41 46 L31 46 C21 46 11 51 11 61 Z" fill="url(#gradient1)"/>
  
  <!-- Top R vertical part -->
  <path d="M11 21 L11 71 L21 71 L21 46 L36 46 C44 46 51 39 51 31 C51 23 44 16 36 16 L11 21 Z M21 26 L36 26 C38 26 41 28 41 31 C41 34 38 36 36 36 L21 36 L21 26 Z" fill="url(#gradient1)"/>
  
  <defs>
    <linearGradient id="gradient1" x1="0%" y1="0%" x2="100%" y2="100%">
      <stop offset="0%" style="stop-color:#c4b5fd"/>
      <stop offset="100%" style="stop-color:#a78bfa"/>
    </linearGradient>
    <linearGradient id="gradient2" x1="0%" y1="0%" x2="100%" y2="100%">
      <stop offset="0%" style="stop-color:#a78bfa"/>
      <stop offset="100%" style="stop-color:#8b5cf6"/>
    </linearGradient>
    <linearGradient id="gradient3" x1="0%" y1="0%" x2="100%" y2="100%">
      <stop offset="0%" style="stop-color:#8b5cf6"/>
      <stop offset="100%" style="stop-color:#6d28d9"/>
    </linearGradient>
  </defs>
</svg>