<svg width="48" height="48" viewBox="0 0 48 48" fill="none" xmlns="http://www.w3.org/2000/svg">
  <defs>
    <!-- Top layer gradient (cream to light orange) -->
    <linearGradient id="topGradient" x1="0%" y1="0%" x2="100%" y2="100%">
      <stop offset="0%" style="stop-color:#FDF6ED;stop-opacity:1" />
      <stop offset="30%" style="stop-color:#FFE5CC;stop-opacity:1" />
      <stop offset="70%" style="stop-color:#FFCC99;stop-opacity:1" />
      <stop offset="100%" style="stop-color:#FFB366;stop-opacity:1" />
    </linearGradient>
    
    <!-- Middle layer gradient (medium orange) -->
    <linearGradient id="middleGradient" x1="0%" y1="0%" x2="100%" y2="100%">
      <stop offset="0%" style="stop-color:#FFB366;stop-opacity:1" />
      <stop offset="50%" style="stop-color:#FF9A42;stop-opacity:1" />
      <stop offset="100%" style="stop-color:#FF8C42;stop-opacity:1" />
    </linearGradient>
    
    <!-- Bottom layer gradient (vibrant orange to red-orange) -->
    <linearGradient id="bottomGradient" x1="0%" y1="0%" x2="100%" y2="100%">
      <stop offset="0%" style="stop-color:#FF8C42;stop-opacity:1" />
      <stop offset="50%" style="stop-color:#FF7A33;stop-opacity:1" />
      <stop offset="100%" style="stop-color:#FF6B1A;stop-opacity:1" />
    </linearGradient>
  </defs>
  
  <!-- Abstract R shape with three flowing layers -->
  
  <!-- Top curved section (lightest) -->
  <path d="M4 4 C4 2, 6 0, 10 0 L32 0 C40 0, 48 6, 48 16 C48 24, 42 28, 36 30 C44 32, 48 38, 46 44 C44 48, 38 46, 32 40 L20 28 C16 24, 14 20, 12 16 L12 8 C12 6, 8 4, 4 4 Z"
        fill="url(#topGradient)"/>
  
  <!-- Middle flowing section -->
  <path d="M4 8 C4 6, 6 4, 10 4 L28 4 C36 4, 42 8, 42 16 C42 20, 40 22, 36 24 C40 26, 44 30, 42 36 C40 40, 34 38, 28 34 L16 22 C12 18, 10 14, 8 10 L8 8 C8 6, 6 4, 4 8 Z"
        fill="url(#middleGradient)"/>
  
  <!-- Bottom curved section (darkest) -->
  <path d="M4 12 C4 10, 6 8, 10 8 L24 8 C32 8, 36 12, 36 18 C36 22, 34 24, 30 26 C34 28, 38 32, 36 36 C34 40, 28 38, 22 34 L12 24 C8 20, 6 16, 4 12 Z"
        fill="url(#bottomGradient)"/>
  
  <!-- White separator lines for layered effect -->
  <path d="M8 4 C12 4, 16 6, 20 8 C24 10, 28 12, 32 14 C36 16, 40 18, 42 22" 
        stroke="rgba(255,255,255,0.4)" 
        stroke-width="0.5" 
        fill="none"/>
        
  <path d="M8 8 C12 8, 16 10, 20 12 C24 14, 28 16, 32 18 C36 20, 38 22, 40 26" 
        stroke="rgba(255,255,255,0.3)" 
        stroke-width="0.5" 
        fill="none"/>
</svg>